<?xml version="1.0" encoding="UTF-8" standalone="no"?>
<svg width="200px" height="200px" viewBox="0 0 200 200" version="1.1" xmlns="http://www.w3.org/2000/svg" xmlns:xlink="http://www.w3.org/1999/xlink" xmlns:sketch="http://www.bohemiancoding.com/sketch/ns">
    <!-- Generator: Sketch 3.3.3 (12081) - http://www.bohemiancoding.com/sketch -->
    <title>256</title>
    <desc>Created with Sketch.</desc>
    <defs>
        <path d="M133.333333,136.27549 L163.158824,151.188235 C165.088235,152.152941 168.180392,152.035294 170.029412,150.923529 L192.715686,137.313725 C194.564706,136.203922 196.133333,133.531373 196.201961,131.376471 L199.87451,15.6862745 C199.943137,13.5294118 198.32549,11.2078431 196.278431,10.527451 L168.42549,1.23921569 C166.378431,0.556862745 163.080392,0.688235294 161.096078,1.53137255 L127.616003,15.7351004 L100,27.4509804 L72.6101757,15.8310549 L38.9039216,1.53137255 C36.9176471,0.688235294 33.6196078,0.556862745 31.572549,1.23921569 L3.71960784,10.5254902 C1.6745098,11.2058824 0.0549019608,13.527451 0.123529412,15.6843137 L3.79607843,131.37451 C3.86470588,133.531373 5.43333333,136.201961 7.28235294,137.311765 L29.9686275,150.921569 C31.8176471,152.031373 34.9098039,152.15098 36.8392157,151.186275 L66.6666667,136.272549 L66.6666667,164.705882 C66.6666667,166.862745 68.2627451,169.378431 70.2156863,170.298039 L96.4529412,182.645098 C98.4039216,183.564706 101.598039,183.564706 103.54902,182.645098 L129.786275,170.298039 C131.737255,169.378431 133.333333,166.862745 133.333333,164.705882 L133.333333,136.27549 L133.333333,136.27549 L133.333333,136.27549 Z M130.031598,82.7690573 C130.100858,82.8066768 130.167164,82.8451061 130.230516,82.8842761 C130.16474,82.844093 130.098417,82.8056593 130.031598,82.7690573 L130.031598,82.7690573 L130.031598,82.7690573 Z" id="path-1"></path>
    </defs>
    <g id="Page-1" stroke="none" stroke-width="1" fill="none" fill-rule="evenodd" sketch:type="MSPage">
        <g id="256" sketch:type="MSArtboardGroup">
            <g id="Mask-+-Group" sketch:type="MSLayerGroup" transform="translate(0.000000, 8.000000)">
                <mask id="mask-2" sketch:name="Mask" fill="white">
                    <use xlink:href="#path-1"></use>
                </mask>
                <use id="Mask" sketch:type="MSShapeGroup" xlink:href="#path-1"></use>
                <g id="Group" mask="url(#mask-2)" sketch:type="MSShapeGroup">
                    <g transform="translate(-0.960784, 0.000000)">
                        <path d="M167.627451,152.941176 L167.627451,68.627451 L134.294116,84.3312989 L134.294116,136.500002 L167.627451,152.941176 Z" id="Path-4" fill="none"></path>
                        <path d="M100.960784,27.4509804 L100.960784,68.6274509 L134.294118,84.3137269 L134.294118,41.1764701 L100.960784,27.4509804 Z" id="Path-6" fill="none"></path>
                        <path d="M67.627451,152.941172 L67.627451,68.6274468 L34.2941164,84.3312947 L34.2941164,136.499998 L67.627451,152.941172 Z" id="Path-4-Copy-2" fill-opacity="0.5" fill="#000000" fill-rule="evenodd" transform="translate(50.960784, 110.784310) scale(-1, 1) translate(-50.960784, -110.784310) "></path>
                        <path d="M67.627451,27.4509804 L67.627451,68.6274509 L100.960785,84.3137269 L100.960785,41.1764701 L67.627451,27.4509804 Z" id="Path-6-Copy" fill-opacity="0.5" fill="#FFFFFF" fill-rule="evenodd" transform="translate(84.294118, 55.882354) scale(-1, 1) translate(-84.294118, -55.882354) "></path>
                        <path d="M100.960784,27.4509801 L134.294116,41.1764703 L200.960784,11.7647056 L165.666667,3.53751091e-08 L100.960784,27.4509801 Z" id="Path-7" fill-opacity="0.5" fill="#000000" fill-rule="evenodd"></path>
                        <path d="M0.960784307,27.4509801 L34.2941158,41.1764703 L100.960784,11.7647056 L65.6666667,3.53751091e-08 L0.960784307,27.4509801 Z" id="Path-7-Copy" fill-opacity="0.5" fill="#000000" fill-rule="evenodd" transform="translate(50.960784, 20.588235) scale(-1, 1) translate(-50.960784, -20.588235) "></path>
                        <path d="M167.627451,152.941172 L197.039216,135.294118 L200.960784,11.7647059 L134.294118,41.1764706 L134.294118,84.3137288 L167.627451,68.6274505 L167.627451,152.941172 Z" id="Path-5" fill-opacity="0.5" fill="#FFFFFF" fill-rule="evenodd"></path>
                        <path d="M34.2941176,152.941172 L63.7058823,135.294118 L67.627451,11.7647059 L0.96078431,41.1764706 L0.96078431,84.3137288 L34.2941176,68.6274505 L34.2941176,152.941172 Z" id="Path-5-Copy" fill="none" transform="translate(34.294118, 82.352939) scale(-1, 1) translate(-34.294118, -82.352939) "></path>
                        <path d="M100.960784,100.000001 L134.294116,84.3137261 L100.960784,68.6274509 L100.960784,100.000001 Z M100.960783,100.000001 L67.627451,84.3137261 L100.960783,68.6274509 L100.960783,100.000001 Z" id="Path-3" fill-opacity="0.5" fill="#000000" fill-rule="evenodd"></path>
                        <path d="M100.960784,184.313726 L100.960784,100.000001 L134.294118,84.3137255 L134.294118,168.627452 L100.960784,184.313726 Z" id="Path-1" fill-opacity="0.5" fill="#FFFFFF" fill-rule="evenodd"></path>
                        <path d="M67.627451,184.313726 L67.627451,100.000001 L100.960784,84.3137255 L100.960784,168.627452 L67.627451,184.313726 Z" id="Path-1-Copy" fill="none" transform="translate(84.294118, 134.313726) scale(-1, 1) translate(-84.294118, -134.313726) "></path>
                    </g>
                </g>
            </g>
        </g>
    </g>
</svg>
